<?xml version="1.0" encoding="UTF-8"?>
<svg xmlns="http://www.w3.org/2000/svg" xmlns:xlink="http://www.w3.org/1999/xlink" viewBox="0 0 48 48" width="48px" height="48px">
<g id="surface130719">
<path style=" stroke:none;fill-rule:nonzero;fill:rgb(100%,100%,100%);fill-opacity:1;" d="M 20.980469 4 C 20.023438 4 19.203125 4.675781 19.019531 5.617188 L 18.351562 9.046875 C 16.710938 9.667969 15.191406 10.535156 13.859375 11.628906 L 10.570312 10.496094 C 9.664062 10.183594 8.667969 10.558594 8.1875 11.386719 L 5.171875 16.613281 C 4.695312 17.441406 4.867188 18.496094 5.589844 19.125 L 8.226562 21.417969 C 8.089844 22.261719 8 23.117188 8 24 C 8 24.882812 8.089844 25.738281 8.226562 26.582031 L 5.589844 28.875 C 4.867188 29.503906 4.695312 30.558594 5.171875 31.386719 L 8.1875 36.613281 C 8.664062 37.441406 9.664062 37.816406 10.570312 37.507812 L 13.859375 36.375 C 15.191406 37.46875 16.710938 38.332031 18.351562 38.953125 L 19.019531 42.382812 C 19.203125 43.324219 20.023438 44 20.980469 44 L 27.019531 44 C 27.976562 44 28.796875 43.324219 28.980469 42.382812 L 29.648438 38.953125 C 31.289062 38.332031 32.808594 37.464844 34.140625 36.371094 L 37.429688 37.503906 C 38.335938 37.816406 39.332031 37.441406 39.8125 36.613281 L 42.828125 31.382812 C 43.304688 30.554688 43.132812 29.503906 42.410156 28.875 L 39.773438 26.582031 C 39.910156 25.738281 40 24.882812 40 24 C 40 23.117188 39.910156 22.261719 39.773438 21.417969 L 42.410156 19.125 C 43.132812 18.496094 43.304688 17.441406 42.828125 16.613281 L 39.8125 11.386719 C 39.335938 10.558594 38.335938 10.183594 37.429688 10.492188 L 34.140625 11.625 C 32.808594 10.53125 31.289062 9.667969 29.648438 9.046875 L 28.980469 5.617188 C 28.796875 4.675781 27.976562 4 27.019531 4 Z M 24 16 C 28.417969 16 32 19.582031 32 24 C 32 28.417969 28.417969 32 24 32 C 19.582031 32 16 28.417969 16 24 C 16 19.582031 19.582031 16 24 16 Z M 24 16 "/>
</g>
</svg>
