<svg id="Livello_1" data-name="Livello 1" xmlns="http://www.w3.org/2000/svg" viewBox="0 0 905.48 715.22"><defs><style>.cls-1{fill:#fff;}</style></defs><title>wdidt-logo2</title><path class="cls-1" d="M5.1,30.91c-6-16.06,10.83-22,37-22,25.77,0,37.35,6,43.7,22C91,44,86.53,51.83,91.38,67.14l17.93,56c9.34,28,19.8,19.42,25.4,6.72l10.46-25.77-5.6-17.18c-7.85-26.15-25.78-35.11-34-56-6.35-16.06,10.83-22,36.6-22,26.15,0,37.73,6,44.08,22,4.85,13.07.37,20.92,5.23,36.23l17.92,56c9.72,28,20.17,19.42,25.4,6.72l15.32-37.35c12.32-29.13-16.81-45.94-10.83-66.86,3.36-10.83,14.19-16.81,39.59-16.81,26.89,0,40.34,10.84,34.36,27.27-6,16.81-32.49,30.63-40.71,51.55L246,153.43c-13.45,32.12-20.92,47.43-43,47.43-23.9,0-31-13.07-41.83-46.31l-7.1-22-8.21,20.92c-13.45,32.12-20.92,47.43-43.33,47.43-23.53,0-30.63-13.07-41.84-46.31L39.46,86.94C31.62,60.79,13.32,51.83,5.1,30.91Z" transform="translate(-3.89 -8.87)"/><path class="cls-1" d="M385.34,178.82c0-20.17,10.83-29.88,11.58-53.78-.38-15.69-11.58-30.26-29.14-30.26-15.31,0-28,18.68-26.52,38.1l1.5,7.47c3.36,14.2,9.34,23.16,9.34,38.47,0,16.44-12.7,22-36.24,22-23.9,0-36.6-5.6-36.6-22,0-20.54,11.21-30.25,11.21-55.65V86.94c0-25.4-11.21-35.11-11.21-55.66,0-16.43,12.7-22.41,36.6-22.41,23.54,0,36.24,6,36.24,22.41,0,20.55-11.21,29.89-11.21,54.91,10.83-7.09,25-10.08,40.34-10.08,32.87,0,64.25,14.19,65.74,47.06,0,25.4,11.21,35.11,11.21,55.65,0,16.44-12.33,22-36.24,22S385.34,195.26,385.34,178.82Z" transform="translate(-3.89 -8.87)"/><path class="cls-1" d="M467.88,168.74c-6.34-34.74,61.26-57.15,93.38-41.83-2.61-18.31-10.45-32.13-22.78-32.13-15.31,0-12,19.43-27.27,25-12.7,4.11-29.88-1.87-32.49-13.82C473.49,82.83,516.07,76.11,543,76.11c30.63,0,69.48,20.54,69.48,53.41v22.41c0,12.7,13.82,13.45,13.82,25,0,13.82-18.68,23.9-33.25,23.9-10.83,0-20.54-4.85-26.14-13.44-9.71,7.47-23.53,13.44-43.7,13.44C500.75,200.86,472.74,195.26,467.88,168.74Zm60.14-7.1c3.36,17.18,20.92,11.58,34.37-.37V147.45C537.36,136.24,526.15,149.69,528,161.64Z" transform="translate(-3.89 -8.87)"/><path class="cls-1" d="M621.77,91.79a15.78,15.78,0,0,1,15.69-15.68h5.23c9.71,0,25.77-29.88,44.82-29.88,11.21,0,19.8,4.48,19.8,16.43,0,5.23-1.5,9.34-3.36,13.45h11.2a15.69,15.69,0,1,1,0,31.37H695.73v44.45c0,12.7,3.36,22,23.53,12.33,8.22-3.74,23.53.74,14.57,15.31-9.71,16.81-31.75,21.29-47.44,21.29-19.8,0-43.7-12-43.7-38.84V107.48h-5.23A15.78,15.78,0,0,1,621.77,91.79Z" transform="translate(-3.89 -8.87)"/><path class="cls-1" d="M15.18,314.94c0-25.4-11.2-35.11-11.2-55.66,0-16.43,14.57-22,38.1-22.41H95.49c58.64,0,102.72,43.33,102.72,96,0,53-44.08,96-102.72,96H42.08c-23.53,0-38.1-6-38.1-22,0-20.54,11.2-30.25,11.2-55.65Zm70.6,95.25c25.4,0,44.82-44.45,44.82-77.32s-19.42-77-44.82-77c-9.71,0-15.69,8.22-15.69,17.93V392.26C70.09,402,76.07,410.19,85.78,410.19Z" transform="translate(-3.89 -8.87)"/><path class="cls-1" d="M209.41,366.48c0-34.36,33.24-62.37,74.33-62.37s74.33,28,74.33,62.37c0,34.74-33.24,62.38-74.33,62.38S209.41,401.22,209.41,366.48Zm59.39,0c0,24.28,6.72,43.71,14.94,43.71,8.59,0,15.31-19.43,15.31-43.71,0-23.9-6.72-43.7-15.31-43.7C275.52,322.78,268.8,342.58,268.8,366.48Z" transform="translate(-3.89 -8.87)"/><path class="cls-1" d="M428.66,351.17V314.94c0-25.4-11.21-35.11-11.21-55.66,0-16.43,14.94-22.41,38.85-22.41s38.85,6,38.85,22.41c0,20.55-11.58,30.26-11.58,55.66v36.23c0,25.4,11.58,35.11,11.58,55.65,0,16.44-14.95,22-38.85,22s-38.85-5.6-38.85-22C417.45,386.28,428.66,376.57,428.66,351.17Z" transform="translate(-3.89 -8.87)"/><path class="cls-1" d="M566.48,314.94c0-25.4-11.2-35.11-11.2-55.66,0-16.43,14.56-22,38.1-22.41h53.41c58.64,0,102.72,43.33,102.72,96,0,53-44.08,96-102.72,96H593.38c-23.54,0-38.1-6-38.1-22,0-20.54,11.2-30.25,11.2-55.65Zm70.6,95.25c25.4,0,44.82-44.45,44.82-77.32s-19.42-77-44.82-77c-9.71,0-15.69,8.22-15.69,17.93V392.26C621.39,402,627.37,410.19,637.08,410.19Z" transform="translate(-3.89 -8.87)"/><path class="cls-1" d="M760.71,366.48c0-34.36,33.24-62.37,74.33-62.37s74.33,28,74.33,62.37c0,34.74-33.25,62.38-74.33,62.38S760.71,401.22,760.71,366.48Zm59.39,0c0,24.28,6.72,43.71,14.94,43.71,8.59,0,15.31-19.43,15.31-43.71,0-23.9-6.72-43.7-15.31-43.7C826.82,322.78,820.1,342.58,820.1,366.48Z" transform="translate(-3.89 -8.87)"/><path class="cls-1" d="M51,462.26c5.23,1.12,22,2.61,41.46,2.61h45.2c19.05,0,35.86-1.49,41.09-2.61,55.65-11.58,56.77,60.14,30.25,60.14-24.65,0-41.09-38.48-62-38.48h-4.86c0,1.5.37,3,.37,4.86v90.39c0,25.4,11.21,35.11,11.21,55.66,0,16.43-14.94,22-38.85,22s-38.84-5.6-38.84-22c0-20.55,11.58-30.26,11.58-55.66V488.78a20,20,0,0,1,.37-4.86H83.16c-21.29,0-37.72,38.48-62.37,38.48C-5.73,522.4-4.61,450.68,51,462.26Z" transform="translate(-3.89 -8.87)"/><path class="cls-1" d="M161.23,594.48c0-34.36,33.24-62.37,74.33-62.37s74.33,28,74.33,62.37c0,34.74-33.24,62.38-74.33,62.38S161.23,629.22,161.23,594.48Zm59.39,0c0,24.28,6.72,43.71,14.94,43.71,8.59,0,15.32-19.43,15.32-43.71,0-23.9-6.73-43.7-15.32-43.7C227.34,550.78,220.62,570.58,220.62,594.48Z" transform="translate(-3.89 -8.87)"/><path class="cls-1" d="M318.11,594.48c0-34.36,31-62.37,69.47-62.37,16.81,0,32.5,5.23,44.45,14.19v-3.36c0-25.4-11.58-35.11-11.58-55.66,0-16.43,12.7-22.41,36.61-22.41s36.6,6,36.6,22.41c0,20.55-11.58,30.26-11.58,55.66v36.23c0,25.4,11.58,35.11,11.58,55.66,0,16.43-12.7,22-36.6,22-16.06,0-27.27-2.61-32.5-9.34a76.48,76.48,0,0,1-37,9.34C349.11,656.86,318.11,629.22,318.11,594.48Zm61.25,0c0,22.42,12,40.72,26.15,40.72,14.57,0,26.52-18.3,26.52-40.72s-11.95-40.71-26.52-40.71C391.32,553.77,379.36,572.07,379.36,594.48Z" transform="translate(-3.89 -8.87)"/><path class="cls-1" d="M503.74,624.74C497.39,590,565,567.59,597.12,582.91c-2.62-18.31-10.46-32.13-22.79-32.13-15.31,0-12,19.43-27.26,25-12.7,4.11-29.88-1.87-32.5-13.82-5.23-23.16,37.35-29.88,64.25-29.88,30.63,0,69.47,20.54,69.47,53.41v22.41c0,12.7,13.82,13.45,13.82,25,0,13.82-18.67,23.9-33.24,23.9-10.83,0-20.54-4.85-26.15-13.44-9.71,7.47-23.53,13.44-43.7,13.44C536.61,656.86,508.6,651.26,503.74,624.74Zm60.14-7.1c3.36,17.19,20.91,11.58,34.36-.37V603.45C573.21,592.24,562,605.69,563.88,617.64Z" transform="translate(-3.89 -8.87)"/><path class="cls-1" d="M727.48,679.27c9.71-14.19-9.34-42.2-26.9-66.48-18.67-25.78-28-33.62-41.83-54.54-10.83-16.43,9.34-26.14,33.24-26.14,23.54,0,40,7.84,49.68,22,9,13.82,10.83,29.51,21.67,49.31v-.37c10.08-25.78-.75-33.25,7.09-51.92,6-13.45,14.94-19,29.14-19s22.78,10.83,17.93,22c-6.35,15.32-22,23.54-32.87,48.94,0,0-21.29,53.78-26.15,63.87-14.57,31-31.75,57.15-64.25,57.15-20.54,0-43.32-7.47-45.94-27.27-2.24-19.42,19.8-40,43.7-25.4C703.57,678.53,718.89,692.35,727.48,679.27Z" transform="translate(-3.89 -8.87)"/></svg>