<svg id="Livello_1" data-name="Livello 1" xmlns="http://www.w3.org/2000/svg" viewBox="0 0 1281.98 558.04"><defs><style>.cls-1{fill:#fff;}</style></defs><title>wdidt-logo</title><path class="cls-1" d="M4.1,26.91c-6-16.06,10.83-22,37-22,25.77,0,37.35,6,43.7,22C90,40,85.53,47.83,90.38,63.14l17.93,56c9.34,28,19.8,19.42,25.4,6.72l10.46-25.77-5.6-17.18c-7.85-26.15-25.78-35.11-34-56-6.35-16.06,10.83-22,36.6-22,26.15,0,37.73,6,44.08,22,4.85,13.07.37,20.92,5.23,36.23l17.92,56c9.72,28,20.17,19.42,25.4,6.72l15.32-37.35c12.32-29.13-16.81-45.94-10.83-66.86,3.36-10.83,14.19-16.81,39.59-16.81,26.89,0,40.34,10.84,34.36,27.27-6,16.81-32.49,30.63-40.71,51.55L245,149.43c-13.45,32.12-20.92,47.43-43,47.43-23.9,0-31-13.07-41.83-46.31l-7.1-22-8.21,20.92c-13.45,32.12-20.92,47.43-43.33,47.43-23.53,0-30.63-13.07-41.84-46.31L38.46,82.94C30.62,56.79,12.32,47.83,4.1,26.91Z" transform="translate(-2.89 -4.87)"/><path class="cls-1" d="M384.34,174.82c0-20.17,10.83-29.88,11.58-53.78-.38-15.69-11.58-30.26-29.14-30.26-15.31,0-28,18.68-26.52,38.1l1.5,7.47c3.36,14.2,9.34,23.16,9.34,38.47,0,16.44-12.7,22-36.24,22-23.9,0-36.6-5.6-36.6-22,0-20.54,11.21-30.25,11.21-55.65V82.94c0-25.4-11.21-35.11-11.21-55.66,0-16.43,12.7-22.41,36.6-22.41,23.54,0,36.24,6,36.24,22.41,0,20.55-11.21,29.89-11.21,54.91,10.83-7.09,25-10.08,40.34-10.08,32.87,0,64.25,14.19,65.74,47.06,0,25.4,11.21,35.11,11.21,55.65,0,16.44-12.33,22-36.24,22S384.34,191.26,384.34,174.82Z" transform="translate(-2.89 -4.87)"/><path class="cls-1" d="M466.88,164.74c-6.34-34.74,61.26-57.15,93.38-41.83-2.61-18.31-10.45-32.13-22.78-32.13-15.31,0-12,19.43-27.27,25-12.7,4.11-29.88-1.87-32.49-13.82C472.49,78.83,515.07,72.11,542,72.11c30.63,0,69.48,20.54,69.48,53.41v22.41c0,12.7,13.82,13.45,13.82,25,0,13.82-18.68,23.9-33.25,23.9-10.83,0-20.54-4.85-26.14-13.44-9.71,7.47-23.53,13.44-43.7,13.44C499.75,196.86,471.74,191.26,466.88,164.74Zm60.14-7.1c3.36,17.18,20.92,11.58,34.37-.37V143.45C536.36,132.24,525.15,145.69,527,157.64Z" transform="translate(-2.89 -4.87)"/><path class="cls-1" d="M620.77,87.79a15.78,15.78,0,0,1,15.69-15.68h5.23c9.71,0,25.77-29.88,44.82-29.88,11.21,0,19.8,4.48,19.8,16.43,0,5.23-1.5,9.34-3.36,13.45h11.2a15.69,15.69,0,1,1,0,31.37H694.73v44.45c0,12.7,3.36,22,23.53,12.33,8.22-3.74,23.53.74,14.57,15.31-9.71,16.81-31.75,21.29-47.44,21.29-19.8,0-43.7-12-43.7-38.84V103.48h-5.23A15.78,15.78,0,0,1,620.77,87.79Z" transform="translate(-2.89 -4.87)"/><path class="cls-1" d="M804.91,82.94c0-25.4-11.21-35.11-11.21-55.66,0-16.43,14.57-22,38.1-22.41h53.41c58.65,0,102.72,43.33,102.72,96,0,53-44.07,96-102.72,96H831.8c-23.53,0-38.1-6-38.1-22,0-20.54,11.21-30.25,11.21-55.65Zm70.59,95.25c25.4,0,44.83-44.45,44.83-77.32S900.9,23.92,875.5,23.92c-9.71,0-15.68,8.22-15.68,17.93V160.26C859.82,170,865.79,178.19,875.5,178.19Z" transform="translate(-2.89 -4.87)"/><path class="cls-1" d="M999.13,134.48c0-34.36,33.25-62.37,74.33-62.37s74.33,28,74.33,62.37c0,34.74-33.24,62.38-74.33,62.38S999.13,169.22,999.13,134.48Zm59.39,0c0,24.28,6.73,43.71,14.94,43.71,8.59,0,15.32-19.43,15.32-43.71,0-23.9-6.73-43.7-15.32-43.7C1065.25,90.78,1058.52,110.58,1058.52,134.48Z" transform="translate(-2.89 -4.87)"/><path class="cls-1" d="M1218.38,119.17V82.94c0-25.4-11.2-35.11-11.2-55.66,0-16.43,14.94-22.41,38.84-22.41s38.85,6,38.85,22.41c0,20.55-11.58,30.26-11.58,55.66v36.23c0,25.4,11.58,35.11,11.58,55.65,0,16.44-14.94,22-38.85,22s-38.84-5.6-38.84-22C1207.18,154.28,1218.38,144.57,1218.38,119.17Z" transform="translate(-2.89 -4.87)"/><path class="cls-1" d="M14.18,381.75c0-25.4-11.2-35.11-11.2-55.65,0-16.44,14.57-22,38.1-22.41H94.49c58.64,0,102.72,43.32,102.72,96,0,53-44.08,96-102.72,96H41.08c-23.53,0-38.1-6-38.1-22,0-20.55,11.2-30.26,11.2-55.66ZM84.78,477c25.4,0,44.82-44.45,44.82-77.32s-19.42-76.94-44.82-76.94c-9.71,0-15.69,8.21-15.69,17.92V459.07C69.09,468.78,75.07,477,84.78,477Z" transform="translate(-2.89 -4.87)"/><path class="cls-1" d="M208.41,433.3c0-34.37,33.24-62.38,74.33-62.38s74.33,28,74.33,62.38c0,34.73-33.24,62.37-74.33,62.37S208.41,468,208.41,433.3Zm59.39,0c0,24.28,6.72,43.7,14.94,43.7,8.59,0,15.31-19.42,15.31-43.7,0-23.91-6.72-43.7-15.31-43.7C274.52,389.6,267.8,409.39,267.8,433.3Z" transform="translate(-2.89 -4.87)"/><path class="cls-1" d="M463.52,301.07c5.23,1.12,22,2.62,41.46,2.62h45.19c19.05,0,35.86-1.5,41.09-2.62,55.66-11.58,56.78,60.14,30.26,60.14-24.66,0-41.09-38.47-62-38.47h-4.85c0,1.49.37,3,.37,4.85V418c0,25.4,11.2,35.11,11.2,55.66,0,16.43-14.94,22-38.84,22s-38.85-5.6-38.85-22c0-20.55,11.58-30.26,11.58-55.66V327.59a19.33,19.33,0,0,1,.38-4.85h-4.86c-21.29,0-37.73,38.47-62.38,38.47C406.74,361.21,407.86,289.49,463.52,301.07Z" transform="translate(-2.89 -4.87)"/><path class="cls-1" d="M573.71,433.3c0-34.37,33.24-62.38,74.33-62.38s74.33,28,74.33,62.38c0,34.73-33.25,62.37-74.33,62.37S573.71,468,573.71,433.3Zm59.39,0c0,24.28,6.72,43.7,14.94,43.7,8.59,0,15.31-19.42,15.31-43.7,0-23.91-6.72-43.7-15.31-43.7C639.82,389.6,633.1,409.39,633.1,433.3Z" transform="translate(-2.89 -4.87)"/><path class="cls-1" d="M730.58,433.3c0-34.37,31-62.38,69.48-62.38,16.8,0,32.49,5.23,44.44,14.19v-3.36c0-25.4-11.57-35.11-11.57-55.65,0-16.44,12.7-22.41,36.6-22.41s36.61,6,36.61,22.41c0,20.54-11.58,30.25-11.58,55.65V418c0,25.4,11.58,35.11,11.58,55.66,0,16.43-12.7,22-36.61,22-16.06,0-27.27-2.61-32.5-9.33a76.57,76.57,0,0,1-37,9.33C761.58,495.67,730.58,468,730.58,433.3Zm61.26,0c0,22.41,11.95,40.71,26.15,40.71,14.56,0,26.51-18.3,26.51-40.71s-12-40.72-26.51-40.72C803.79,392.58,791.84,410.89,791.84,433.3Z" transform="translate(-2.89 -4.87)"/><path class="cls-1" d="M916.21,463.55c-6.35-34.74,61.26-57.15,93.38-41.83-2.61-18.3-10.45-32.12-22.78-32.12-15.31,0-11.95,19.42-27.27,25-12.7,4.11-29.88-1.87-32.49-13.82-5.23-23.16,37.35-29.88,64.24-29.88,30.63,0,69.48,20.54,69.48,53.41v22.41c0,12.7,13.82,13.45,13.82,25,0,13.82-18.68,23.9-33.25,23.9-10.83,0-20.54-4.85-26.14-13.44-9.71,7.47-23.53,13.44-43.7,13.44C949.08,495.67,921.07,490.07,916.21,463.55Zm60.14-7.09c3.36,17.18,20.92,11.57,34.36-.38V442.26C985.69,431.06,974.48,444.5,976.35,456.46Z" transform="translate(-2.89 -4.87)"/><path class="cls-1" d="M1140,518.09c9.72-14.2-9.33-42.21-26.89-66.49-18.68-25.77-28-33.62-41.83-54.53-10.84-16.44,9.33-26.15,33.24-26.15,23.53,0,40,7.84,49.68,22,9,13.82,10.83,29.51,21.66,49.3v-.37c10.09-25.77-.75-33.24,7.1-51.92,6-13.45,14.94-19.05,29.13-19.05s22.79,10.83,17.93,22c-6.35,15.31-22,23.53-32.87,48.93,0,0-21.29,53.78-26.14,63.87-14.57,31-31.75,57.15-64.25,57.15-20.54,0-43.33-7.47-45.94-27.27-2.24-19.42,19.79-40,43.7-25.4C1116.05,517.34,1131.36,531.16,1140,518.09Z" transform="translate(-2.89 -4.87)"/></svg>